<svg id="visual" viewBox="0 0 900 600" width="900" height="600" xmlns="http://www.w3.org/2000/svg" xmlns:xlink="http://www.w3.org/1999/xlink" version="1.1"><path d="M0 178L21.5 176.3C43 174.7 86 171.3 128.8 176.7C171.7 182 214.3 196 257.2 201.3C300 206.7 343 203.3 385.8 196C428.7 188.7 471.3 177.3 514.2 181.2C557 185 600 204 642.8 217.3C685.7 230.7 728.3 238.3 771.2 231.8C814 225.3 857 204.7 878.5 194.3L900 184L900 0L878.5 0C857 0 814 0 771.2 0C728.3 0 685.7 0 642.8 0C600 0 557 0 514.2 0C471.3 0 428.7 0 385.8 0C343 0 300 0 257.2 0C214.3 0 171.7 0 128.8 0C86 0 43 0 21.5 0L0 0Z" fill="#ffefd6"></path><path d="M0 180L21.5 175.2C43 170.3 86 160.7 128.8 163C171.7 165.3 214.3 179.7 257.2 186.3C300 193 343 192 385.8 189.2C428.7 186.3 471.3 181.7 514.2 170C557 158.3 600 139.7 642.8 130.8C685.7 122 728.3 123 771.2 130.3C814 137.7 857 151.3 878.5 158.2L900 165L900 0L878.5 0C857 0 814 0 771.2 0C728.3 0 685.7 0 642.8 0C600 0 557 0 514.2 0C471.3 0 428.7 0 385.8 0C343 0 300 0 257.2 0C214.3 0 171.7 0 128.8 0C86 0 43 0 21.5 0L0 0Z" fill="#fcdeb8"></path><path d="M0 122L21.5 118C43 114 86 106 128.8 110.5C171.7 115 214.3 132 257.2 139.2C300 146.3 343 143.7 385.8 135C428.7 126.3 471.3 111.7 514.2 108.8C557 106 600 115 642.8 119.8C685.7 124.7 728.3 125.3 771.2 131.5C814 137.7 857 149.3 878.5 155.2L900 161L900 0L878.5 0C857 0 814 0 771.2 0C728.3 0 685.7 0 642.8 0C600 0 557 0 514.2 0C471.3 0 428.7 0 385.8 0C343 0 300 0 257.2 0C214.3 0 171.7 0 128.8 0C86 0 43 0 21.5 0L0 0Z" fill="#f9cd9b"></path><path d="M0 99L21.5 98.2C43 97.3 86 95.7 128.8 96C171.7 96.3 214.3 98.7 257.2 95.2C300 91.7 343 82.3 385.8 75C428.7 67.7 471.3 62.3 514.2 68.8C557 75.3 600 93.7 642.8 102.3C685.7 111 728.3 110 771.2 102C814 94 857 79 878.5 71.5L900 64L900 0L878.5 0C857 0 814 0 771.2 0C728.3 0 685.7 0 642.8 0C600 0 557 0 514.2 0C471.3 0 428.7 0 385.8 0C343 0 300 0 257.2 0C214.3 0 171.7 0 128.8 0C86 0 43 0 21.5 0L0 0Z" fill="#f7ba80"></path><path d="M0 41L21.5 42.7C43 44.3 86 47.7 128.8 46.8C171.7 46 214.3 41 257.2 40.8C300 40.7 343 45.3 385.8 46.8C428.7 48.3 471.3 46.7 514.2 45C557 43.3 600 41.7 642.8 45.2C685.7 48.7 728.3 57.3 771.2 57.7C814 58 857 50 878.5 46L900 42L900 0L878.5 0C857 0 814 0 771.2 0C728.3 0 685.7 0 642.8 0C600 0 557 0 514.2 0C471.3 0 428.7 0 385.8 0C343 0 300 0 257.2 0C214.3 0 171.7 0 128.8 0C86 0 43 0 21.5 0L0 0Z" fill="#f5a768"></path></svg>